<svg width="219" height="34" viewBox="0 0 219 34" fill="none" xmlns="http://www.w3.org/2000/svg">
<path d="M211.566 10.296C212.862 8.28 215.142 7.272 218.406 7.272V11.556C218.022 11.484 217.674 11.448 217.362 11.448C215.61 11.448 214.242 11.964 213.258 12.996C212.274 14.004 211.782 15.468 211.782 17.388V26.712H207.282V7.488H211.566V10.296Z" fill="#5A5A5A"/>
<path d="M194.066 23.148C196.154 23.148 197.894 22.452 199.286 21.06L201.662 23.832C200.822 24.864 199.742 25.644 198.422 26.172C197.102 26.7 195.614 26.964 193.958 26.964C191.846 26.964 189.986 26.544 188.378 25.704C186.77 24.864 185.522 23.7 184.634 22.212C183.77 20.7 183.338 18.996 183.338 17.1C183.338 15.228 183.758 13.548 184.598 12.06C185.462 10.548 186.638 9.372 188.126 8.532C189.638 7.692 191.342 7.272 193.238 7.272C195.038 7.272 196.67 7.668 198.134 8.46C199.622 9.228 200.798 10.344 201.662 11.808C202.526 13.248 202.958 14.94 202.958 16.884L188.234 19.764C188.69 20.868 189.422 21.708 190.43 22.284C191.438 22.86 192.65 23.148 194.066 23.148ZM193.238 10.872C191.582 10.872 190.238 11.412 189.206 12.492C188.198 13.572 187.694 15.024 187.694 16.848V16.884L198.566 14.796C198.254 13.62 197.618 12.672 196.658 11.952C195.722 11.232 194.582 10.872 193.238 10.872Z" fill="#5A5A5A"/>
<path d="M179.035 0V26.712H174.715V24.228C173.971 25.14 173.047 25.824 171.943 26.28C170.863 26.736 169.663 26.964 168.343 26.964C166.495 26.964 164.827 26.556 163.339 25.74C161.875 24.924 160.723 23.772 159.883 22.284C159.043 20.772 158.623 19.044 158.623 17.1C158.623 15.156 159.043 13.44 159.883 11.952C160.723 10.464 161.875 9.312 163.339 8.496C164.827 7.68 166.495 7.272 168.343 7.272C169.615 7.272 170.779 7.488 171.835 7.92C172.891 8.352 173.791 9 174.535 9.864V0H179.035ZM168.883 23.112C169.963 23.112 170.935 22.872 171.799 22.392C172.663 21.888 173.347 21.18 173.851 20.268C174.355 19.356 174.607 18.3 174.607 17.1C174.607 15.9 174.355 14.844 173.851 13.932C173.347 13.02 172.663 12.324 171.799 11.844C170.935 11.34 169.963 11.088 168.883 11.088C167.803 11.088 166.831 11.34 165.967 11.844C165.103 12.324 164.419 13.02 163.915 13.932C163.411 14.844 163.159 15.9 163.159 17.1C163.159 18.3 163.411 19.356 163.915 20.268C164.419 21.18 165.103 21.888 165.967 22.392C166.831 22.872 167.803 23.112 168.883 23.112Z" fill="#5A5A5A"/>
<path d="M154.801 26.964C152.809 26.964 151.249 26.424 150.121 25.344C149.017 24.24 148.465 22.692 148.465 20.7V0H152.965V20.376C152.965 22.296 153.865 23.256 155.665 23.256C156.265 23.256 156.805 23.136 157.285 22.896L157.501 26.496C156.661 26.808 155.761 26.964 154.801 26.964Z" fill="#5A5A5A"/>
<path d="M133.902 26.964C131.958 26.964 130.206 26.544 128.646 25.704C127.086 24.864 125.862 23.7 124.974 22.212C124.11 20.7 123.678 18.996 123.678 17.1C123.678 15.204 124.11 13.512 124.974 12.024C125.862 10.536 127.086 9.372 128.646 8.532C130.206 7.692 131.958 7.272 133.902 7.272C135.87 7.272 137.634 7.692 139.194 8.532C140.754 9.372 141.966 10.536 142.83 12.024C143.718 13.512 144.162 15.204 144.162 17.1C144.162 18.996 143.718 20.7 142.83 22.212C141.966 23.7 140.754 24.864 139.194 25.704C137.634 26.544 135.87 26.964 133.902 26.964ZM133.902 23.112C135.558 23.112 136.926 22.56 138.006 21.456C139.086 20.352 139.626 18.9 139.626 17.1C139.626 15.3 139.086 13.848 138.006 12.744C136.926 11.64 135.558 11.088 133.902 11.088C132.246 11.088 130.878 11.64 129.798 12.744C128.742 13.848 128.214 15.3 128.214 17.1C128.214 18.9 128.742 20.352 129.798 21.456C130.878 22.56 132.246 23.112 133.902 23.112Z" fill="#5A5A5A"/>
<path d="M122.977 7.48801L114.733 26.712H110.089L101.845 7.48801H106.525L112.501 21.744L118.657 7.48801H122.977Z" fill="#5A5A5A"/>
<path d="M92.113 23.148C94.201 23.148 95.941 22.452 97.333 21.06L99.709 23.832C98.869 24.864 97.789 25.644 96.469 26.172C95.149 26.7 93.661 26.964 92.005 26.964C89.893 26.964 88.033 26.544 86.425 25.704C84.817 24.864 83.569 23.7 82.681 22.212C81.817 20.7 81.385 18.996 81.385 17.1C81.385 15.228 81.805 13.548 82.645 12.06C83.509 10.548 84.685 9.372 86.173 8.532C87.685 7.692 89.389 7.272 91.285 7.272C93.085 7.272 94.717 7.668 96.181 8.46C97.669 9.228 98.845 10.344 99.709 11.808C100.573 13.248 101.005 14.94 101.005 16.884L86.281 19.764C86.737 20.868 87.469 21.708 88.477 22.284C89.485 22.86 90.697 23.148 92.113 23.148ZM91.285 10.872C89.629 10.872 88.285 11.412 87.253 12.492C86.245 13.572 85.741 15.024 85.741 16.848V16.884L96.613 14.796C96.301 13.62 95.665 12.672 94.705 11.952C93.769 11.232 92.629 10.872 91.285 10.872Z" fill="#5A5A5A"/>
<path d="M69.0567 7.272C71.4807 7.272 73.4247 7.98 74.8887 9.396C76.3527 10.812 77.0847 12.912 77.0847 15.696V26.712H72.5847V16.272C72.5847 14.592 72.1887 13.332 71.3967 12.492C70.6047 11.628 69.4767 11.196 68.0127 11.196C66.3567 11.196 65.0487 11.7 64.0887 12.708C63.1287 13.692 62.6487 15.12 62.6487 16.992V26.712H58.1487V7.488H62.4327V9.972C63.1767 9.084 64.1127 8.412 65.2407 7.956C66.3687 7.5 67.6407 7.272 69.0567 7.272Z" fill="#5A5A5A"/>
<path d="M52.2326 7.488V23.796C52.2326 30.564 48.7766 33.948 41.8646 33.948C40.0166 33.948 38.2646 33.708 36.6086 33.228C34.9526 32.772 33.5846 32.1 32.5046 31.212L34.5206 27.828C35.3606 28.524 36.4166 29.076 37.6886 29.484C38.9846 29.916 40.2926 30.132 41.6126 30.132C43.7246 30.132 45.2726 29.652 46.2566 28.692C47.2406 27.732 47.7326 26.268 47.7326 24.3V23.292C46.9646 24.132 46.0286 24.768 44.9246 25.2C43.8206 25.632 42.6086 25.848 41.2886 25.848C39.4646 25.848 37.8086 25.464 36.3206 24.696C34.8566 23.904 33.6926 22.8 32.8286 21.384C31.9886 19.968 31.5686 18.348 31.5686 16.524C31.5686 14.7 31.9886 13.092 32.8286 11.7C33.6926 10.284 34.8566 9.192 36.3206 8.424C37.8086 7.656 39.4646 7.272 41.2886 7.272C42.6806 7.272 43.9406 7.5 45.0686 7.956C46.2206 8.412 47.1806 9.108 47.9486 10.044V7.488H52.2326ZM41.9726 22.032C43.6766 22.032 45.0686 21.528 46.1486 20.52C47.2526 19.488 47.8046 18.156 47.8046 16.524C47.8046 14.916 47.2526 13.608 46.1486 12.6C45.0686 11.592 43.6766 11.088 41.9726 11.088C40.2446 11.088 38.8286 11.592 37.7246 12.6C36.6446 13.608 36.1046 14.916 36.1046 16.524C36.1046 18.156 36.6446 19.488 37.7246 20.52C38.8286 21.528 40.2446 22.032 41.9726 22.032Z" fill="#5A5A5A"/>
<path d="M18.5895 26.964C16.6455 26.964 14.8935 26.544 13.3335 25.704C11.7735 24.864 10.5495 23.7 9.6615 22.212C8.7975 20.7 8.3655 18.996 8.3655 17.1C8.3655 15.204 8.7975 13.512 9.6615 12.024C10.5495 10.536 11.7735 9.372 13.3335 8.532C14.8935 7.692 16.6455 7.272 18.5895 7.272C20.5575 7.272 22.3215 7.692 23.8815 8.532C25.4415 9.372 26.6535 10.536 27.5175 12.024C28.4055 13.512 28.8495 15.204 28.8495 17.1C28.8495 18.996 28.4055 20.7 27.5175 22.212C26.6535 23.7 25.4415 24.864 23.8815 25.704C22.3215 26.544 20.5575 26.964 18.5895 26.964ZM18.5895 23.112C20.2455 23.112 21.6135 22.56 22.6935 21.456C23.7735 20.352 24.3135 18.9 24.3135 17.1C24.3135 15.3 23.7735 13.848 22.6935 12.744C21.6135 11.64 20.2455 11.088 18.5895 11.088C16.9335 11.088 15.5655 11.64 14.4855 12.744C13.4295 13.848 12.9015 15.3 12.9015 17.1C12.9015 18.9 13.4295 20.352 14.4855 21.456C15.5655 22.56 16.9335 23.112 18.5895 23.112Z" fill="#5A5A5A"/>
<path d="M2.952 26.964C2.136 26.964 1.44 26.688 0.864 26.136C0.288 25.56 0 24.84 0 23.976C0 23.088 0.276 22.368 0.828 21.816C1.404 21.264 2.112 20.988 2.952 20.988C3.792 20.988 4.488 21.264 5.04 21.816C5.616 22.368 5.904 23.088 5.904 23.976C5.904 24.84 5.616 25.56 5.04 26.136C4.464 26.688 3.768 26.964 2.952 26.964Z" fill="#5A5A5A"/>
</svg>
